<svg width="36" height="28" viewBox="0 0 36 28" fill="none" xmlns="http://www.w3.org/2000/svg">
<path fill-rule="evenodd" clip-rule="evenodd" d="M12.1864 1C7.49382 5.34783 7.79713 10.2392 11.0887 12.4131V12.9561C8.25883 11.6817 6.73132 7.30023 9.63071 3.17383C9.82265 2.90066 10.0338 2.62835 10.2655 2.3584C10.0177 2.46361 9.74144 2.58389 9.44321 2.7207C5.11931 4.70438 -3.7975 10.24 3.0936 26C-0.709686 19.2018 -3.92166 6.26316 12.1864 1ZM8.07016 4.02148C5.42352 7.32487 3.66658 14.5313 7.11997 20.7373L6.68149 20.4658C2.29645 17.9114 2.4434 23.0257 3.0936 26C-1.8351 12.4751 3.08763 6.96132 8.07016 4.02148ZM23.8153 1C39.9232 6.26319 36.7113 19.2018 32.9081 26C39.7992 10.24 30.8823 4.70438 26.5584 2.7207C26.26 2.5838 25.9832 2.46366 25.7352 2.3584C25.9668 2.62828 26.1781 2.90073 26.37 3.17383C29.2693 7.30012 27.7427 11.6816 24.9129 12.9561V12.4131C28.2045 10.2392 28.5077 5.34778 23.8153 1ZM27.9305 4.02148C32.9131 6.96129 37.8368 12.4749 32.9081 26C33.5792 22.9298 33.714 17.5796 28.8817 20.7373C32.3351 14.5312 30.5772 7.32479 27.9305 4.02148ZM13.8475 22.1963C14.3979 23.006 15.4947 23.5478 15.5086 23.5547C15.5086 23.5547 14.1236 23.5551 13.2928 22.7402L13.8475 22.1963ZM22.7088 22.7402C21.883 23.5504 20.5095 23.5547 20.493 23.5547C20.507 23.5478 21.6037 23.0061 22.1541 22.1963L22.7088 22.7402ZM18.0008 23.3457L14.7284 18.71H21.2733L18.0008 23.3457ZM17.0799 22.9854L11.9051 20.0537L14.1229 18.7979L17.0799 22.9854ZM24.0965 20.0537L18.9217 22.9854L21.8778 18.7979L24.0965 20.0537ZM13.5702 21.6533L13.0165 22.1963L12.7391 21.1094L13.5702 21.6533ZM22.9852 22.1963L22.4315 21.6533L23.2625 21.1094L22.9852 22.1963ZM7.75962 5.46875C6.96662 8.26796 7.48355 12.1842 11.0887 13.5V18.9346C9.44312 18.1194 7.99881 17.7222 7.11997 20.7373C4.59185 14.4169 5.99924 8.62954 7.75962 5.46875ZM28.2411 5.46875C30.0015 8.62947 31.4099 14.4167 28.8817 20.7373L28.7967 20.4639C27.9115 17.7472 26.507 18.1449 24.9129 18.9346V13.5C28.5181 12.1842 29.0341 8.26795 28.2411 5.46875ZM13.8485 18.332L11.6317 19.5889V13.7256L13.8485 18.332ZM24.37 19.5889L22.1522 18.332L24.37 13.7256V19.5889ZM21.3221 18.1729H14.6786L18.0008 12.5273L21.3221 18.1729ZM24.2274 12.7627L21.7723 17.8623L18.4989 12.2988L24.2274 12.7627ZM14.2284 17.8613L11.7743 12.7627L17.5018 12.2988L14.2284 17.8613ZM17.7264 11.7412L12.5516 12.1602L17.7264 9.22852V11.7412ZM23.45 12.1602L18.2743 11.7412V9.22852L23.45 12.1602Z" fill="#1E1E1E"/>
</svg>
